g Box001
v -0.4713 0 0.3576
v 0.5287 0 -0.6424
v -0.4713 0 -0.6424
v 0.5287 0 0.3576
v -0.4713 0 0.3576
v 0.0287 1 -0.1424
v 0.5287 0 0.3576
v 0.5287 0 0.3576
v 0.0287 1 -0.1424
v 0.5287 0 -0.6424
v 0.5287 0 -0.6424
v 0.0287 1 -0.1424
v -0.4713 0 -0.6424
v -0.4713 0 -0.6424
v 0.0287 1 -0.1424
v -0.4713 0 0.3576
vt 1 0
vt 0 1
vt 1 1
vt 0 0
vt 0 0
vt 1 1
vt 1 0
vt 0 0
vt 1 1
vt 1 0
vt 0 0
vt 1 1
vt 1 0
vt 0 0
vt 1 1
vt 1 0
vn 0 -1 0
vn 0 -1 0
vn 0 -1 0
vn 0 -1 0
vn 0 0.4472136 0.8944272
vn 0 0.4472136 0.8944272
vn 0 0.4472136 0.8944272
vn 0.8944272 0.4472136 0
vn 0.8944272 0.4472136 0
vn 0.8944272 0.4472136 0
vn 0 0.4472136 -0.8944272
vn 0 0.4472136 -0.8944272
vn 0 0.4472136 -0.8944272
vn -0.8944272 0.4472136 0
vn -0.8944272 0.4472136 0
vn -0.8944272 0.4472136 0
g Box001_0
f 3/3/3 2/2/2 1/1/1
f 4/4/4 1/1/1 2/2/2
f 7/7/7 6/6/6 5/5/5
f 10/10/10 9/9/9 8/8/8
f 13/13/13 12/12/12 11/11/11
f 16/16/16 15/15/15 14/14/14
