g Box001
v -0.5 0 0.2
v 0.2893 0.2107 -0.2
v -0.5 0 -0.2
v 0.2893 0.2107 0.2
v -0.2893 0.7893 0.2
v 0.5 1 -0.2
v 0.5 1 0.2
v -0.2893 0.7893 -0.2
v -0.5 0 0.2
v 0.5 1 0.2
v 0.2893 0.2107 0.2
v -0.2893 0.7893 0.2
v 0.2893 0.2107 0.2
v 0.5 1 -0.2
v 0.2893 0.2107 -0.2
v 0.5 1 0.2
v 0.2893 0.2107 -0.2
v -0.2893 0.7893 -0.2
v -0.5 0 -0.2
v 0.5 1 -0.2
v -0.5 0 -0.2
v -0.2893 0.7893 0.2
v -0.5 0 0.2
v -0.2893 0.7893 -0.2
vt 1 0
vt 0 1
vt 1 1
vt 0 0
vt 0 0
vt 1 1
vt 1 0
vt 0 1
vt 0 0
vt 1 1
vt 1 0
vt 0 1
vt 0 0
vt 1 1
vt 1 0
vt 0 1
vt 0 0
vt 1 1
vt 1 0
vt 0 1
vt 0 0
vt 1 1
vt 1 0
vt 0 1
vn 0.2578929 -0.9661735 0
vn 0.2578929 -0.9661735 0
vn 0.2578929 -0.9661735 0
vn 0.2578929 -0.9661735 0
vn -0.2578929 0.9661735 0
vn -0.2578929 0.9661735 0
vn -0.2578929 0.9661735 0
vn -0.2578929 0.9661735 0
vn 0 0 1
vn 0 0 1
vn 0 0 1
vn 0 0 1
vn 0.9661735 -0.2578929 0
vn 0.9661735 -0.2578929 0
vn 0.9661735 -0.2578929 0
vn 0.9661735 -0.2578929 0
vn 0 0 -1
vn 0 0 -1
vn 0 0 -1
vn 0 0 -1
vn -0.9661735 0.2578929 0
vn -0.9661735 0.2578929 0
vn -0.9661735 0.2578929 0
vn -0.9661735 0.2578929 0
g Box001_0
f 3/3/3 2/2/2 1/1/1
f 4/4/4 1/1/1 2/2/2
f 7/7/7 6/6/6 5/5/5
f 8/8/8 5/5/5 6/6/6
f 11/11/11 10/10/10 9/9/9
f 12/12/12 9/9/9 10/10/10
f 15/15/15 14/14/14 13/13/13
f 16/16/16 13/13/13 14/14/14
f 19/19/19 18/18/18 17/17/17
f 20/20/20 17/17/17 18/18/18
f 23/23/23 22/22/22 21/21/21
f 24/24/24 21/21/21 22/22/22
