g Box001
v -0.2071 -1.2071 0
v 0.7468 0.7468 -0.4861
v -0.7071 -0.7071 -0.7071
v 1.0905 0.4031 0
v -0.7071 -0.7071 0.7071
v 0.4031 1.0905 0
v 0.7468 0.7468 0.4861
v -1.2071 -0.2071 0
v -0.2071 -1.2071 0
v 0.7468 0.7468 0.4861
v 1.0905 0.4031 0
v -0.7071 -0.7071 0.7071
v 1.0905 0.4031 0
v 1.1828 1.1828 0
v 0.7468 0.7468 -0.4861
v 0.7468 0.7468 -0.4861
v -1.2071 -0.2071 0
v -0.7071 -0.7071 -0.7071
v 0.4031 1.0905 0
v -0.7071 -0.7071 -0.7071
v -1.193 -1.193 0
v -0.2071 -1.2071 0
v -0.2071 -1.2071 0
v -1.193 -1.193 0
v -0.7071 -0.7071 0.7071
v -0.7071 -0.7071 0.7071
v -1.193 -1.193 0
v -1.2071 -0.2071 0
v -1.193 -1.193 0
v -0.7071 -0.7071 -0.7071
v -1.2071 -0.2071 0
v 0.7468 0.7468 -0.4861
v 1.1828 1.1828 0
v 0.4031 1.0905 0
v 0.4031 1.0905 0
v 1.1828 1.1828 0
v 0.7468 0.7468 0.4861
v 1.1828 1.1828 0
v 1.0905 0.4031 0
v 0.7468 0.7468 0.4861
vt 0.2057 0.2984
vt 0.8152 0.0483
vt 0.2057 0.002
vt 0.8152 0.2521
vt 0.2057 0.6256
vt 0.8152 0.8757
vt 0.8152 0.6719
vt 0.2057 0.922
vt 0.2057 0.2984
vt 0.8152 0.2521
vt 0.8152 0.2521
vt 0.2057 0.2984
vt 0.8152 0.2521
vt 0.998 0.1502
vt 0.8152 0.0483
vt 0.8152 0.8757
vt 0.2057 0.922
vt 0.2057 0.922
vt 0.8152 0.8757
vt 0.2057 0.002
vt 0.002 0.1502
vt 0.2057 0.2984
vt 0.2057 0.2984
vt 0.002 0.1502
vt 0.2057 0.2984
vt 0.2057 0.6256
vt 0.002 0.7738
vt 0.2057 0.922
vt 0.002 0.1502
vt 0.2057 0.002
vt 0.2057 0.002
vt 0.8152 0.8757
vt 0.998 0.7738
vt 0.8152 0.8757
vt 0.8152 0.8757
vt 0.998 0.7738
vt 0.8152 0.6719
vt 0.998 0.7738
vt 0.8152 0.6719
vt 0.8152 0.6719
vn 0.552168 -0.4449742 -0.7050592
vn 0.552168 -0.4449742 -0.7050592
vn 0.552168 -0.4449742 -0.7050592
vn 0.552168 -0.4449742 -0.7050592
vn -0.4449742 0.552168 0.7050592
vn -0.4449742 0.552168 0.7050592
vn -0.4449742 0.552168 0.7050592
vn -0.4449742 0.552168 0.7050592
vn 0.552168 -0.4449742 0.7050592
vn 0.552168 -0.4449742 0.7050592
vn 0.552168 -0.4449742 0.7050592
vn 0.552168 -0.4449742 0.7050592
vn 0.7810207 -0.09250245 -0.6176164
vn 0.7810207 -0.09250245 -0.6176164
vn 0.7810207 -0.09250245 -0.6176164
vn -0.4449742 0.552168 -0.7050592
vn -0.4449742 0.552168 -0.7050592
vn -0.4449742 0.552168 -0.7050592
vn -0.4449742 0.552168 -0.7050592
vn -0.01170009 -0.8203065 -0.5718045
vn -0.01170009 -0.8203065 -0.5718045
vn -0.01170009 -0.8203065 -0.5718045
vn -0.01170009 -0.8203065 0.5718045
vn -0.01170009 -0.8203065 0.5718045
vn -0.01170009 -0.8203065 0.5718045
vn -0.8203065 -0.01170009 0.5718045
vn -0.8203065 -0.01170009 0.5718045
vn -0.8203065 -0.01170009 0.5718045
vn -0.8203065 -0.01170009 -0.5718045
vn -0.8203065 -0.01170009 -0.5718045
vn -0.8203065 -0.01170009 -0.5718045
vn -0.09250245 0.7810207 -0.6176164
vn -0.09250245 0.7810207 -0.6176164
vn -0.09250245 0.7810207 -0.6176164
vn -0.09250245 0.7810207 0.6176164
vn -0.09250245 0.7810207 0.6176164
vn -0.09250245 0.7810207 0.6176164
vn 0.7810207 -0.09250245 0.6176164
vn 0.7810207 -0.09250245 0.6176164
vn 0.7810207 -0.09250245 0.6176164
g Box001_0
f 3/3/3 2/2/2 1/1/1
f 4/4/4 1/1/1 2/2/2
f 7/7/7 6/6/6 5/5/5
f 8/8/8 5/5/5 6/6/6
f 11/11/11 10/10/10 9/9/9
f 12/12/12 9/9/9 10/10/10
f 15/15/15 14/14/14 13/13/13
f 18/18/18 17/17/17 16/16/16
f 19/19/19 16/16/16 17/17/17
f 22/22/22 21/21/21 20/20/20
f 25/25/25 24/24/24 23/23/23
f 28/28/28 27/27/27 26/26/26
f 31/31/31 30/30/30 29/29/29
f 34/34/34 33/33/33 32/32/32
f 37/37/37 36/36/36 35/35/35
f 40/40/40 39/39/39 38/38/38
